<?xml version="1.0" encoding="utf-8"?>
<!-- Generator: Adobe Illustrator 19.0.0, SVG Export Plug-In . SVG Version: 6.00 Build 0)  -->
<svg version="1.1" xmlns="http://www.w3.org/2000/svg" xmlns:xlink="http://www.w3.org/1999/xlink" x="0px" y="0px"
	 viewBox="0 0 500 500" style="enable-background:new 0 0 500 500;" xml:space="preserve">
<style type="text/css">
	.st0{display:none;}
	.st1{display:inline;}
	.st2{fill:none;stroke:#000000;stroke-width:14;stroke-miterlimit:10;}
	.st3{display:inline;fill:none;stroke:#000000;stroke-width:5;stroke-miterlimit:10;}
	.st4{display:inline;fill:none;stroke:#000000;stroke-width:14;stroke-miterlimit:10;}
	.st5{display:inline;fill:none;stroke:#000000;stroke-width:10;stroke-miterlimit:10;}
	.st6{fill:#59AD26;}
</style>
<g id="BarGraph" class="st0">
	<g id="XMLID_1_" class="st1">
		<path id="XMLID_27_" d="M173.9,302.3V418H103V302.3H173.9 M187.9,288.3H89V432h98.9V288.3L187.9,288.3z"/>
	</g>
	<g id="XMLID_4_" class="st1">
		<path id="XMLID_23_" d="M286.9,229.7V418h-70.9V229.7H286.9 M300.9,215.7h-98.9V432h98.9V215.7L300.9,215.7z"/>
	</g>
	<g id="XMLID_6_" class="st1">
		<path id="XMLID_21_" d="M399.7,85.7V418h-70.9V85.7H399.7 M413.7,71.7h-98.9V432h98.9V71.7L413.7,71.7z"/>
	</g>
	<rect id="XMLID_8_" x="72" y="418" class="st1" width="360" height="14"/>
</g>
<g id="Ribbon" class="st0">
	<path id="XMLID_9_" class="st2" d="M148,378.3l23.7,64.7l118.7-174c0,0,40-58.7,50.7-93.3s-2.7-58-24-92.7c0,0,2.7,24.7-5.3,41.3
		c0,0-16.7,31.7-48.2,81.7S148,378.3,148,378.3z"/>
	<g id="XMLID_5_" class="st1">
		<g id="XMLID_7_">
			<path id="XMLID_11_" d="M186.9,431.7l-24.1-65.9l1.7-2.4c0.7-1,68.7-100.1,94-140.3c24.5-38.8,38.1-64.3,39-66.1
				c4.7-9.9,4.3-25.4,3.8-30.5l-2.7-25.1l13.2,21.5c16.7,27.1,29.9,48.6,20.2,80.2c-8.8,28.7-40.7,75.6-42,77.6L186.9,431.7z
				 M175.5,367.4l14.5,39.5l90.5-132.6c0.3-0.5,32.2-47.4,40.6-74.5c6.1-19.9,1.7-34.8-8.8-53.8c-0.7,5.4-2.1,11.1-4.5,16.1
				l-0.1,0.2c-0.1,0.3-14,26.5-39.5,66.9C244.9,266,186.1,351.8,175.5,367.4z"/>
			<g id="XMLID_30_">
				<path id="XMLID_33_" d="M208.1,280.7l6.3,9.2c2.3-3.4,4.6-6.8,6.9-10.2l-3.7-5.4c-0.3-0.5-32.2-47.4-40.6-74.5
					c-6.1-19.9-1.7-34.8,8.8-53.8c0.7,5.4,2.1,11.1,4.5,16.1l0.1,0.2c0.1,0.3,14,26.5,39.5,66.9c3.4,5.4,7.6,11.9,12.3,19.1
					c2.4-3.6,4.7-7.1,6.8-10.4c-3.6-5.5-6.8-10.4-9.5-14.7c-24.5-38.8-38.1-64.3-39-66.1c-4.7-9.9-4.3-25.4-3.8-30.5l2.7-25.1
					l-13.2,21.5c-16.7,27.1-29.9,48.6-20.2,80.2C174.9,231.8,206.8,278.7,208.1,280.7z"/>
				<path id="XMLID_34_" d="M333.5,363.3c-0.4-0.6-24.9-36.3-49.9-73.5l-6.9,10.1c20.5,30.4,40.1,59,45.8,67.4L308,406.9l-52.1-76.4
					l-6.9,10.1l62.1,91.1l24.1-65.9L333.5,363.3z"/>
			</g>
		</g>
		<path id="XMLID_10_" d="M248,83.9c17,0,30,7,39.5,21.4c4,6,6.8,12.4,8.7,18.2c-16.6-13.4-33.6-20.2-50.8-20.2
			c-17.4,0-32,6.9-43.5,15.3c1.6-4.2,3.5-8.5,5.9-12.5C216.9,91.2,230,83.9,248,83.9 M248,72.5c-50.9,0-61.2,50-63.3,71.7l4.3,3
			c8.8-11.3,28.9-32.5,56.4-32.5c17.3,0,37.6,8.4,59.7,33.2l6.7-5.4C309.7,119.7,295.7,72.5,248,72.5L248,72.5z"/>
	</g>
</g>
<g id="Inventory" class="st0">
	<g id="XMLID_14_" class="st1">
		<path id="XMLID_49_" d="M151.7,287c10.7,0,21,2.7,30.6,7.8c15.7,8.2,27.2,22.1,32.5,38.9c5.3,16.9,3.7,34.8-4.5,50.5
			c-11.5,21.9-33.9,35.6-58.7,35.6c-10.7,0-21-2.5-30.6-7.5c-15.7-8.2-27.2-22-32.5-38.8c-5.3-16.9-3.7-35,4.5-50.6
			C104.5,300.8,127,287,151.7,287h0.3 M151.7,273.4c-28.9,0-56.8,15.7-71.1,43c-20.5,39.2-5.3,87.7,33.9,108.2
			c11.9,6.2,24.6,9.1,37.1,9.1c28.9,0,56.8-15.7,71.1-43c20.5-39.2,5.3-87.7-33.9-108.2C176.9,276.4,164.2,273.4,151.7,273.4
			L151.7,273.4z"/>
	</g>
	<line id="XMLID_20_" class="st3" x1="179.5" y1="286.9" x2="114.1" y2="412.1"/>
	<line id="XMLID_31_" class="st3" x1="190" y1="292.4" x2="124.6" y2="417.5"/>
	<g id="XMLID_32_" class="st1">
		<path id="XMLID_54_" d="M118.4,73.6v14c8.7,0,16.9,3.7,22.6,10.3l93,108.2c10.7,12.4,9.3,31.2-3.2,41.9l-2.4,2.1
			c-5.3,4.6-12.2,7.1-19.3,7.1c-8.7,0-16.9-3.7-22.6-10.3l-93-108.2c-10.7-12.4-9.3-31.2,3.2-41.9l2.4-2.1
			c5.3-4.6,12.2-7.1,19.3-7.1L118.4,73.6 M118.4,73.6c-10.1,0-20.2,3.5-28.4,10.5l-2.4,2.1c-18.2,15.7-20.3,43.4-4.6,61.6l93,108.2
			c8.6,10,20.9,15.2,33.2,15.2c10.1,0,20.2-3.5,28.4-10.5l2.4-2.1c18.2-15.7,20.3-43.4,4.6-61.6l-93-108.2
			C143,78.8,130.7,73.6,118.4,73.6L118.4,73.6z"/>
	</g>
	<line id="XMLID_35_" class="st4" x1="129.4" y1="202" x2="197.6" y2="143.3"/>
	<g id="XMLID_38_" class="st1">
		<path id="XMLID_57_" d="M342.5,86.6c2.3,0,4.5,2,4.5,4.3v5.5V107l10.2,2.9c17.5,4.9,29.8,21.1,29.8,39.2v72.6v135.7V403v14h14h17
			h-17H298v-14v-45.7V221.7v-72.6c0-18.1,12.3-34.3,29.8-39.2L338,107V96.4v-5.5C338,88.5,340.2,86.6,342.5,86.6 M342.5,72.6
			c-10.1,0-18.5,8.3-18.5,18.3v5.5c-23,6.5-40,27.7-40,52.7v72.6v135.7V403h-18.7c-6.6,0-12.3,5.4-12.3,12v4c0,6.6,5.7,12,12.3,12
			h19H401h19c6.6,0,12-5.4,12-12v-4c0-6.6-5.4-12-12-12h-19v-45.7V221.7v-72.6c0-25-17-46.2-40-52.7v-5.5
			C361,80.8,352.6,72.6,342.5,72.6L342.5,72.6z"/>
	</g>
</g>
<g id="Client" class="st0">
	<g id="XMLID_36_" class="st1">
		<path id="XMLID_41_" d="M87,433c0-1.2,0-2.4,0-3.6c0-40,17.2-77.6,48.3-105.8c31.2-28.3,72.6-43.8,116.7-43.8
			c44.1,0,85.5,15.6,116.7,43.8c31.2,28.3,48.3,65.9,48.3,105.8c0,1.2,0,2.4,0,3.6h14c0-1.2,0.1-2.4,0.1-3.6
			c0-89.7-80.1-162.4-179-162.4S73,339.7,73,429.4c0,1.2,0,2.4,0.1,3.6H87z"/>
	</g>
	<g id="XMLID_37_" class="st1">
		<path id="XMLID_64_" d="M251.7,85.7c49.4,0,89.7,40.2,89.7,89.7S301.1,265,251.7,265S162,224.8,162,175.3S202.2,85.7,251.7,85.7
			 M251.7,71.7c-57.3,0-103.7,46.4-103.7,103.7S194.4,279,251.7,279s103.7-46.4,103.7-103.7S308.9,71.7,251.7,71.7L251.7,71.7z"/>
	</g>
</g>
<g id="Reached" class="st0">
	<g id="XMLID_43_" class="st1">
		<path id="XMLID_70_" d="M203.3,293.1c10.2-9.4,25.7-17.2,49.1-19.2l-1.1-13.3c-25.6,2.2-43,10.7-54.8,20.7
			C199.3,284.9,201.6,288.9,203.3,293.1z"/>
		<path id="XMLID_48_" class="st2" d="M86.4,421.3c0,0-0.3-62.9,75-69.2"/>
		<path id="XMLID_45_" class="st2" d="M236.5,421.3c0,0,0.3-62.9-75-69.2"/>
	</g>
	<g id="XMLID_40_">
		<path id="XMLID_42_" class="st1" d="M92,496c0-1.2,0-2.4,0-3.6c0-40,17.2-77.6,48.3-105.8c31.2-28.3,72.6-43.8,116.7-43.8
			c44.1,0,85.5,15.6,116.7,43.8c31.2,28.3,48.3,65.9,48.3,105.8c0,1.2,0,2.4,0,3.6h14c0-1.2,0.1-2.4,0.1-3.6
			c0-89.7-80.1-162.4-179-162.4S78,402.7,78,492.4c0,1.2,0,2.4,0.1,3.6H92z"/>
	</g>
	<g id="XMLID_52_" class="st1">
		<path id="XMLID_74_" d="M310.6,284.5c-11.7-11.4-30-21.4-58.2-23.8l-1.1,13.3c27,2.3,43.4,12.2,53.4,23.5
			C306,292.8,308,288.5,310.6,284.5z"/>
		<path id="XMLID_61_" class="st2" d="M272.9,421.3c0,0-0.3-62.9,75-69.2"/>
		<path id="XMLID_53_" class="st2" d="M423,421.3c0,0,0.3-62.9-75-69.2"/>
	</g>
	<g id="XMLID_63_" class="st1">
		<g id="XMLID_69_">
			<path id="XMLID_104_" d="M156.7,92.1c17.1,0,31,13.9,31,31s-13.9,31-31,31s-31-13.9-31-31S139.6,92.1,156.7,92.1 M156.7,78.1
				c-24.8,0-45,20.1-45,45s20.1,45,45,45s45-20.1,45-45S181.5,78.1,156.7,78.1L156.7,78.1z"/>
		</g>
		<path id="XMLID_68_" class="st2" d="M81.7,234.8c0,0-0.3-62.9,75-69.2"/>
	</g>
	<g id="XMLID_71_" class="st1">
		<g id="XMLID_77_">
			<path id="XMLID_98_" d="M348,92.1c17.1,0,31,13.9,31,31s-13.9,31-31,31s-31-13.9-31-31S330.9,92.1,348,92.1 M348,78.1
				c-24.8,0-45,20.1-45,45s20.1,45,45,45s45-20.1,45-45S372.8,78.1,348,78.1L348,78.1z"/>
		</g>
		<path id="XMLID_72_" class="st2" d="M423,234.8c0,0,0.3-62.9-75-69.2"/>
	</g>
	<path id="XMLID_73_" class="st1" d="M347.4,158.9c-35.2,3-54.8,17.9-65.7,32.3c3.4,3.1,6.4,6.6,8.8,10.6
		c11.6-17.4,31.1-27.4,58.1-29.7L347.4,158.9z"/>
	<path id="XMLID_87_" class="st1" d="M225.7,195.1c-10.2-15.6-30.1-33-68.4-36.2l-1.1,13.3c35.3,3,52.5,19.1,60.9,34.2
		C219.3,202.1,222.2,198.3,225.7,195.1z"/>
	<g id="XMLID_85_" class="st1">
		<path id="XMLID_102_" d="M256.6,196.7c17.1,0,31,13.9,31,31s-13.9,31-31,31s-31-13.9-31-31S239.5,196.7,256.6,196.7 M256.6,182.7
			c-24.8,0-45,20.1-45,45s20.1,45,45,45s45-20.1,45-45S281.4,182.7,256.6,182.7L256.6,182.7z"/>
	</g>
	<g id="XMLID_39_" class="st1">
		<path id="XMLID_93_" d="M161.5,278.6c17.1,0,31,13.9,31,31s-13.9,31-31,31s-31-13.9-31-31S144.4,278.6,161.5,278.6 M161.5,264.6
			c-24.8,0-45,20.1-45,45s20.1,45,45,45s45-20.1,45-45S186.3,264.6,161.5,264.6L161.5,264.6z"/>
	</g>
	<g id="XMLID_62_" class="st1">
		<path id="XMLID_94_" d="M348,278.6c17.1,0,31,13.9,31,31s-13.9,31-31,31s-31-13.9-31-31S330.9,278.6,348,278.6 M348,264.6
			c-24.8,0-45,20.1-45,45s20.1,45,45,45s45-20.1,45-45S372.8,264.6,348,264.6L348,264.6z"/>
	</g>
</g>
<g id="Services" class="st0">
	<g id="XMLID_108_" class="st1">
		<path id="XMLID_111_" class="st2" d="M85.4,415.3c0,0-0.4-85.6,102.1-94.2"/>
		<path id="XMLID_110_" class="st2" d="M289.7,415.3c0,0,0.4-85.6-102.1-94.2"/>
		<g id="XMLID_92_">
			<path id="XMLID_148_" d="M187.5,216c26,0,47.2,21.2,47.2,47.2s-21.2,47.2-47.2,47.2s-47.2-21.2-47.2-47.2S161.5,216,187.5,216
				 M187.5,202c-33.8,0-61.2,27.4-61.2,61.2s27.4,61.2,61.2,61.2s61.2-27.4,61.2-61.2S221.3,202,187.5,202L187.5,202z"/>
		</g>
	</g>
	<path id="XMLID_119_" class="st1" d="M95,92v209h44.4c-3.3-4.3-6.2-8.9-8.3-14H109V106h308v181H243.9c-2.1,5.1-4.9,9.7-8.3,14H431
		V92H95z"/>
	<rect id="XMLID_117_" x="126" y="139" class="st1" width="273" height="10"/>
	<rect id="XMLID_140_" x="126" y="157" class="st1" width="273" height="10"/>
	<rect id="XMLID_141_" x="126" y="177" class="st1" width="273" height="10"/>
	<line id="XMLID_135_" class="st1" x1="399" y1="207" x2="399" y2="197"/>
	<line id="XMLID_126_" class="st1" x1="194" y1="197" x2="194" y2="207"/>
	<path id="XMLID_127_" class="st1" d="M241.8,235c1.7,3.2,3.1,6.5,4.1,10h153v-10H241.8z"/>
	<path id="XMLID_128_" class="st1" d="M227.6,217c3.4,3,6.5,6.3,9.2,10H399v-10H227.6z"/>
</g>
<g id="CHITS" class="st0">
	<g id="XMLID_136_" class="st1">
		<g id="XMLID_138_">
			<path id="XMLID_159_" d="M279,162v53.6V230h14.2H418v51H293.2H279v13.7V416h-64V294.7V281h-14H83v-51h118h14v-14.4v-38.5l64-15.5
				 M293,143.9l-92,22.3V216H69v79h132v135h92V295h139v-79H293V143.9L293,143.9z"/>
		</g>
		<g id="XMLID_139_">
			<path id="XMLID_156_" d="M279,84v46h-63V84H279 M293,70h-91v74h91V70L293,70z"/>
		</g>
	</g>
</g>
<g id="Home" class="st0">
	<path id="XMLID_75_" class="st4" d="M250,72.3"/>
	<g id="XMLID_78_">
		<path id="XMLID_121_" class="st1" d="M372.3,86.3v72h-26.2v-72H372.3 M386.3,72.3h-54.2v100h54.2V72.3L386.3,72.3z"/>
	</g>
	<polygon id="XMLID_79_" class="st1" points="429,184.2 250,87.3 75.1,184.1 68.3,171.9 250,71.4 435.7,171.8 	"/>
	<polyline id="XMLID_76_" class="st4" points="116,181 116,432 397,432 397,181 	"/>
	<g id="XMLID_67_" class="st1">
		<path id="XMLID_113_" d="M300.2,307.5v117h-87.3v-117H300.2 M314.2,293.5H198.8v145h115.3V293.5L314.2,293.5z"/>
	</g>
	<g id="XMLID_81_" class="st1">
		<polygon id="XMLID_91_" points="344,123.4 344,86 370,86 370,137.6 384,145.1 384,72 330,72 330,115.8 		"/>
	</g>
	<polygon id="XMLID_80_" class="st1" points="429,211.2 250,114.3 75.1,211.1 68.3,198.9 250,98.4 435.7,198.8 	"/>
	<rect id="XMLID_82_" x="286" y="196" class="st5" width="71" height="71"/>
</g>
<g id="Setting">
	<g id="XMLID_90_">
		<path id="XMLID_145_" class="st6" d="M250,194c30.9,0,56,25.1,56,56s-25.1,56-56,56s-56-25.1-56-56S219.1,194,250,194 M250,180
			c-38.7,0-70,31.3-70,70s31.3,70,70,70s70-31.3,70-70S288.7,180,250,180L250,180z"/>
	</g>
	<g id="XMLID_118_">
		<path id="XMLID_153_" class="st6" d="M273,87v23.7v10.8l10.4,2.7c11.7,3.1,23,7.8,33.4,14.1l9.4,5.6l7.7-7.7l16.8-16.8l31.8,31.8
			l-17.3,17.3l-7.6,7.6l5.3,9.3c5.9,10.3,10.4,21.4,13.2,33l2.6,10.6h11H416v45h-27.2h-10.6l-2.8,10.3c-3.2,11.5-7.9,22.4-14.1,32.6
			l-5.7,9.4l7.8,7.8l20.8,20.8l-31.8,31.8l-21.8-21.8l-7.5-7.5l-9.2,5.2c-9.5,5.3-19.7,9.4-30.2,12.2l-10.4,2.7v10.8V419h-45v-30.7
			v-10.8l-10.4-2.7c-10.9-2.9-21.4-7.2-31.2-12.8l-9.3-5.3l-7.6,7.6l-21.7,21.7L116,354.1l21.2-21.2l7.7-7.7l-5.6-9.4
			c-5.9-9.9-10.5-20.5-13.6-31.6l-2.8-10.3h-10.6H84v-45h27.2h11l2.6-10.6c2.8-11.2,7-22,12.7-32l5.2-9.2l-7.5-7.5l-17.7-17.7
			l31.8-31.8l16.7,16.7l7.8,7.8l9.4-5.7c10.7-6.5,22.3-11.5,34.4-14.6l10.4-2.7v-10.8V87H273 M275,73h-49c-6.6,0-12,5.4-12,12v25.7
			c-13.6,3.6-26.4,9.1-38.1,16.2l-18.2-18.2c-2.3-2.3-5.4-3.5-8.5-3.5s-6.2,1.2-8.5,3.5l-34.6,34.6c-4.7,4.7-4.7,12.3,0,17
			l19.1,19.1c-6.2,11-10.9,22.9-14,35.5H82c-6.6,0-12,5.4-12,12v49c0,6.6,5.4,12,12,12h30.2c3.5,12.4,8.6,24.2,15,35.1l-22.6,22.6
			c-4.7,4.7-4.7,12.3,0,17l34.6,34.6c2.3,2.3,5.4,3.5,8.5,3.5s6.2-1.2,8.5-3.5l23.1-23.1c10.7,6.1,22.4,10.9,34.6,14.1V421
			c0,6.6,5.4,12,12,12h49c6.6,0,12-5.4,12-12v-32.7c11.8-3.1,23.1-7.7,33.5-13.5l23.2,23.2c2.3,2.3,5.4,3.5,8.5,3.5
			c3.1,0,6.2-1.2,8.5-3.5l34.6-34.6c4.7-4.7,4.7-12.3,0-17l-22.2-22.2c6.8-11.1,12.1-23.3,15.7-36.1H418c6.6,0,12-5.4,12-12v-49
			c0-6.6-5.4-12-12-12h-28.2c-3.2-13-8.2-25.3-14.6-36.6l18.7-18.7c4.7-4.7,4.7-12.3,0-17L359.2,108c-2.3-2.3-5.4-3.5-8.5-3.5
			c-3.1,0-6.2,1.2-8.5,3.5l-18.2,18.2c-11.4-6.8-23.9-12.1-37.1-15.6V85C287,78.4,281.6,73,275,73L275,73z"/>
	</g>
</g>
</svg>
